<?xml version="1.0" standalone="no"?><!DOCTYPE svg PUBLIC "-//W3C//DTD SVG 1.1//EN" "http://www.w3.org/Graphics/SVG/1.1/DTD/svg11.dtd"><svg t="1644216240447" class="icon" viewBox="0 0 1024 1024" version="1.1" xmlns="http://www.w3.org/2000/svg" p-id="2133" xmlns:xlink="http://www.w3.org/1999/xlink" width="128" height="128"><defs><style type="text/css"></style></defs><path d="M98.3 627.3m-33.3 0a33.3 33.3 0 1 0 66.6 0 33.3 33.3 0 1 0-66.6 0Z" fill="#46A8FF" p-id="2134"></path><path d="M513.2 704c-106.2 0-192-85.8-192-192s85.8-192 192-192 192 85.8 192 192-85.8 192-192 192z" fill="#46A8FF" p-id="2135"></path><path d="M513.2 737.3C389 737.3 287.9 636.2 287.9 512c0-124.2 101.1-225.3 225.3-225.3S738.5 387.8 738.5 512c0 124.2-101.1 225.3-225.3 225.3z m0-384c-87.5 0-158.7 71.2-158.7 158.7s71.2 158.7 158.7 158.7S671.9 599.5 671.9 512s-71.2-158.7-158.7-158.7z" p-id="2136"></path><path d="M843.2 957.8h-660c-63.8 0-115.8-51.9-115.8-115.8v-98.2c0-18.4 14.9-33.3 33.3-33.3s33.3 14.9 33.3 33.3V842c0 27.1 22.1 49.2 49.2 49.2h660c27.1 0 49.2-22.1 49.2-49.2V182c0-27.1-22.1-49.2-49.2-49.2h-660c-27.1 0-49.2 22.1-49.2 49.2v328.8c0 18.4-14.9 33.3-33.3 33.3s-33.3-14.9-33.3-33.3V182c0-63.8 51.9-115.8 115.8-115.8h660C907.1 66.2 959 118.1 959 182v660c0 63.9-51.9 115.8-115.8 115.8z" p-id="2137"></path></svg>